<?xml version="1.0" standalone="no"?>
<!DOCTYPE svg PUBLIC "-//W3C//DTD SVG 20010904//EN"
 "http://www.w3.org/TR/2001/REC-SVG-20010904/DTD/svg10.dtd">
<svg version="1.0" xmlns="http://www.w3.org/2000/svg"
 width="499.000000pt" height="158.000000pt" viewBox="0 0 499.000000 158.000000"
 preserveAspectRatio="xMidYMid meet">

<g transform="translate(0.000000,320.000000) scale(0.100000,-0.100000)"
fill="#fff" stroke="white">
<path d="M665 3109 c-189 -29 -384 -135 -524 -285 -68 -72 -111 -148 -111
-194 0 -23 4 -30 20 -30 11 0 23 8 26 18 44 151 225 329 421 416 184 80 416
70 563 -24 105 -68 131 -188 69 -319 -30 -62 -165 -194 -269 -263 -143 -95
-303 -179 -312 -165 -4 6 -8 112 -8 235 0 195 -2 223 -16 229 -9 3 -20 0 -25
-8 -5 -8 -9 -124 -9 -259 l0 -245 -30 -28 c-37 -36 -38 -53 -1 -74 l28 -17 7
-245 c4 -135 11 -250 16 -255 25 -25 30 13 30 232 0 125 4 233 9 240 6 11 63
2 282 -42 264 -54 354 -67 333 -47 -5 5 -143 38 -307 72 -316 67 -325 70 -312
121 5 17 41 42 133 93 378 209 529 358 540 532 5 79 -15 136 -66 188 -39 40
-147 95 -222 113 -68 17 -197 22 -265 11z"/>
<path d="M3112 3079 c-177 -32 -380 -275 -481 -578 -46 -137 -64 -255 -59
-387 4 -103 7 -117 39 -180 42 -85 94 -127 176 -144 171 -36 402 89 533 287
27 42 51 80 52 85 2 5 18 2 35 -7 42 -21 77 -11 113 33 l29 36 10 -27 c6 -15
21 -29 35 -33 33 -8 94 13 109 37 17 27 27 23 27 -11 0 -23 4 -30 20 -30 15 0
28 18 52 68 l32 67 5 -50 c5 -41 10 -50 25 -50 14 0 26 14 40 51 48 118 80
125 70 15 -8 -82 4 -111 46 -111 16 0 41 11 58 25 l30 25 16 -24 c33 -51 99
-41 140 21 l24 34 6 -25 c16 -63 93 -58 155 10 54 59 67 54 63 -24 -3 -52 -1
-62 16 -71 30 -16 38 -14 76 19 33 30 34 30 63 13 26 -14 34 -15 62 -3 18 7
43 28 55 47 l24 34 6 -25 c15 -62 95 -58 151 6 47 55 45 72 -3 25 -70 -69
-113 -43 -97 58 5 37 3 46 -10 51 -9 4 -21 2 -27 -4 -7 -7 -19 -7 -36 -1 -15
6 -36 8 -49 4 -38 -9 -92 -64 -103 -105 -12 -44 -45 -90 -66 -90 -11 0 -14 15
-14 65 l0 65 -35 0 c-33 0 -35 2 -33 32 2 24 -2 33 -14 36 -26 5 -45 -41 -30
-72 9 -20 7 -27 -17 -50 -36 -35 -78 -35 -87 -1 -3 14 -3 45 1 70 5 37 3 46
-10 51 -9 4 -21 2 -27 -4 -7 -7 -19 -7 -40 0 -38 14 -85 -7 -119 -52 -45 -60
-98 -112 -111 -108 -9 3 -13 29 -13 87 0 85 -7 101 -48 101 -24 0 -74 -26 -80
-42 -3 -10 -9 -8 -24 5 -26 23 -47 14 -75 -30 -19 -33 -22 -34 -29 -16 -8 21
-33 36 -43 26 -3 -4 -6 -18 -6 -32 0 -32 -46 -81 -77 -81 -32 0 -44 30 -37 95
6 51 5 55 -14 55 -11 0 -24 -5 -27 -10 -4 -7 -13 -6 -26 1 -52 27 -123 -21
-167 -114 -42 -89 -140 -216 -211 -274 -115 -93 -260 -151 -345 -139 -235 36
-259 455 -50 866 102 200 245 342 376 374 21 5 33 1 48 -14 42 -42 20 -167
-61 -352 -21 -49 -39 -94 -39 -99 0 -6 10 -9 22 -7 26 4 74 95 115 218 33 102
39 228 12 255 -22 23 -76 33 -127 24z m436 -774 c7 -6 -38 -81 -62 -104 -46
-43 -74 -4 -41 59 25 48 74 70 103 45z m716 9 c21 -8 20 -28 -1 -62 -45 -73
-93 -97 -93 -46 0 50 30 95 77 113 1 1 8 -2 17 -5z m520 0 c21 -8 20 -28 -1
-62 -45 -73 -93 -97 -93 -46 0 50 30 95 77 113 1 1 8 -2 17 -5z"/>
<path d="M2244 2895 c-44 -67 -70 -282 -61 -496 l7 -136 -81 -42 c-46 -23 -95
-41 -113 -41 -41 0 -69 28 -64 67 3 25 8 29 49 34 86 13 117 52 58 73 -59 20
-159 -31 -159 -82 0 -26 -75 -93 -95 -86 -12 5 -15 24 -15 89 0 48 -5 87 -10
90 -17 11 -39 -14 -46 -54 -16 -82 -54 -133 -75 -100 -5 8 -9 40 -9 72 0 49
-3 57 -19 57 -21 0 -31 -19 -31 -60 0 -15 -20 -70 -45 -121 l-46 -94 7 122 6
121 -38 11 c-64 18 -75 14 -141 -55 -52 -54 -68 -65 -90 -62 -28 3 -28 4 -28
73 -1 64 -2 70 -23 73 -12 2 -22 -1 -22 -7 0 -7 -8 -7 -27 0 -39 14 -79 2
-118 -37 -57 -57 -59 -132 -5 -154 41 -17 83 1 116 49 21 31 24 33 24 14 0
-52 79 -65 133 -22 25 19 25 19 41 -6 18 -27 61 -34 98 -14 11 6 21 9 23 7 2
-2 -5 -93 -16 -203 -23 -250 -24 -305 -5 -305 18 0 21 8 45 146 26 144 56 260
88 340 l25 64 20 -25 c25 -32 70 -33 98 -3 16 18 20 19 20 6 0 -24 28 -48 56
-48 13 0 41 15 62 34 l38 34 16 -28 c37 -65 154 -54 257 24 19 14 38 26 42 26
4 0 10 -16 14 -36 9 -50 45 -84 88 -84 44 0 79 28 106 86 28 58 21 83 -7 28
-20 -39 -74 -94 -92 -94 -32 0 -65 88 -57 149 3 20 21 81 40 136 66 185 87
425 43 474 -26 28 -62 27 -82 -4z m76 -104 c0 -79 -22 -219 -50 -320 -35 -124
-42 -119 -35 24 9 178 31 363 46 382 22 26 39 -12 39 -86z m-310 -470 c0 -5
-11 -11 -25 -13 -26 -5 -35 6 -12 15 20 9 37 8 37 -2z m-870 -26 c0 -26 -65
-110 -87 -113 -20 -3 -23 1 -23 28 0 41 26 89 53 99 27 10 57 3 57 -14z m296
-9 c7 -19 -24 -84 -47 -96 -23 -13 -33 2 -24 38 14 59 57 94 71 58z"/>
<path d="M3525 2443 c-41 -61 -27 -92 15 -33 12 17 24 30 28 30 4 0 14 -15 22
-32 17 -35 40 -49 40 -23 0 8 -9 34 -20 55 -26 51 -51 52 -85 3z"/>
</g>
</svg>
