<?xml version="1.0" standalone="no"?>
<!DOCTYPE svg PUBLIC "-//W3C//DTD SVG 20010904//EN"
 "http://www.w3.org/TR/2001/REC-SVG-20010904/DTD/svg10.dtd">
<svg version="1.0" xmlns="http://www.w3.org/2000/svg"
 width="500.000000pt" height="170.000000pt" viewBox="0 0 500.000000 170.000000"
 preserveAspectRatio="xMidYMid meet">

<g transform="translate(0.000000,190.000000) scale(0.100000,-0.100000)"
fill="#fff" stroke="white">
<path d="M2116 1183 c-23 -106 -74 -373 -82 -431 -5 -41 -15 -61 -47 -98 -66
-75 -164 -112 -219 -83 -26 14 -48 68 -48 116 0 51 8 59 59 66 79 10 141 77
141 152 0 80 -55 98 -120 39 -48 -43 -86 -118 -101 -199 -12 -61 -63 -147 -95
-159 -36 -14 -64 -6 -70 19 -5 21 13 147 43 298 4 20 2 27 -9 27 -11 0 -20
-24 -32 -85 -10 -47 -24 -105 -32 -128 -34 -96 -101 -160 -144 -137 -28 15
-26 65 6 228 24 120 26 158 7 139 -12 -13 -63 -252 -63 -299 0 -62 32 -102 81
-100 27 1 43 10 76 45 l42 45 3 -31 c2 -22 11 -36 29 -46 36 -20 82 0 119 51
30 41 33 40 44 -5 9 -39 59 -67 121 -67 56 0 140 41 172 83 l17 24 16 -45 c19
-57 55 -76 109 -58 39 12 95 82 106 131 7 27 4 26 -27 -17 -62 -85 -119 -115
-152 -79 -26 29 -18 117 34 355 45 206 59 316 42 316 -6 0 -17 -30 -26 -67z
m-216 -243 c14 -25 5 -55 -27 -98 -42 -56 -133 -97 -133 -59 0 33 60 135 91
155 42 27 55 27 69 2z"/>
<path d="M153 1209 c-48 -14 -55 -34 -10 -26 20 3 39 3 41 -1 2 -4 -22 -137
-55 -297 -61 -300 -68 -350 -47 -343 8 3 23 62 39 147 14 78 31 147 37 153 14
14 42 -6 42 -31 0 -23 44 -113 81 -167 38 -56 111 -104 156 -104 44 0 42 16
-3 24 -65 13 -152 114 -194 225 -23 58 -21 61 65 86 81 22 128 55 161 111 53
90 30 168 -61 210 -41 19 -66 24 -135 23 -47 0 -99 -5 -117 -10z m260 -40 c46
-24 61 -57 47 -108 -17 -63 -51 -103 -117 -137 -61 -32 -168 -62 -179 -51 -3
3 6 57 20 121 14 63 26 133 26 155 0 36 3 40 28 44 47 8 135 -4 175 -24z"/>
<path d="M2689 1200 c-52 -28 -138 -126 -170 -195 -31 -65 -59 -184 -59 -243
1 -20 7 -54 14 -75 62 -172 248 -219 365 -92 38 41 50 72 35 88 -4 4 -25 -14
-47 -39 -138 -157 -309 -97 -325 115 -8 123 37 246 126 343 65 70 96 88 151
88 71 0 91 -69 39 -135 -27 -34 -11 -53 20 -25 68 64 17 191 -76 190 -20 -1
-53 -9 -73 -20z"/>
<path d="M3111 1099 c-28 -22 -51 -47 -51 -56 0 -9 17 0 46 26 26 23 52 41 59
41 7 0 27 -16 44 -35 33 -38 41 -42 41 -22 0 12 -70 87 -82 87 -3 0 -28 -18
-57 -41z"/>
<path d="M3120 972 c-26 -8 -71 -55 -92 -97 -75 -145 -76 -290 -2 -324 42 -19
61 -13 99 31 29 35 38 40 45 28 5 -8 10 -18 10 -22 0 -4 7 -14 16 -22 27 -27
63 -19 106 24 35 35 39 37 34 15 -6 -22 8 -44 20 -32 3 3 21 46 40 97 44 120
84 188 139 239 78 72 83 59 40 -105 -19 -71 -35 -139 -35 -151 0 -47 21 -29
66 57 52 98 133 207 149 199 14 -6 11 -32 -15 -129 -30 -109 -32 -190 -6 -219
40 -44 137 -16 167 47 l15 32 17 -39 c17 -37 50 -61 87 -61 10 0 35 19 55 42
29 35 38 40 45 28 5 -8 10 -18 10 -22 0 -4 7 -14 16 -22 27 -27 63 -19 106 24
l41 40 -7 -39 c-7 -45 9 -65 23 -29 5 13 15 59 22 103 22 142 97 256 186 286
41 13 32 33 -10 25 -35 -7 -75 -41 -119 -100 l-29 -40 7 56 c4 34 3 58 -4 62
-6 3 -18 -41 -31 -117 -12 -67 -31 -141 -43 -165 -28 -56 -73 -94 -107 -90
-39 5 -47 42 -30 130 17 87 17 90 4 95 -6 2 -21 -28 -33 -66 -45 -139 -116
-207 -156 -149 -50 71 25 311 109 350 36 16 74 -3 81 -42 7 -34 24 -41 24 -9
0 41 -61 86 -110 79 -46 -6 -115 -117 -140 -225 -19 -81 -47 -128 -92 -158
-50 -32 -74 -34 -88 -8 -17 32 -12 80 24 215 19 71 32 135 29 143 -18 46 -111
-30 -173 -141 -18 -31 -34 -55 -37 -53 -2 2 6 46 17 97 23 103 20 127 -16 136
-47 12 -90 -35 -169 -183 -22 -40 -40 -71 -41 -70 -2 1 6 47 17 102 20 106 24
155 11 155 -4 0 -18 -60 -31 -132 -13 -73 -32 -152 -43 -175 -25 -55 -73 -95
-107 -91 -39 5 -47 42 -30 130 17 87 17 90 4 95 -6 2 -21 -28 -33 -66 -45
-139 -116 -207 -156 -149 -50 71 25 311 109 350 36 16 74 -3 81 -42 7 -33 24
-41 24 -11 0 42 -71 96 -110 83z"/>
<path d="M4722 963 c-53 -26 -113 -133 -133 -236 -13 -71 1 -134 36 -164 40
-35 72 -30 115 17 l38 41 20 -36 c23 -39 46 -44 91 -21 31 16 81 86 81 113 0
10 -10 1 -26 -24 -29 -44 -70 -73 -103 -73 -35 0 -38 45 -15 188 10 65 -11 52
-36 -22 -20 -62 -72 -154 -94 -168 -22 -15 -55 -8 -67 13 -15 30 -13 134 5
192 17 56 71 143 97 157 39 22 89 -2 89 -43 0 -9 5 -19 10 -22 21 -13 9 44
-15 68 -33 33 -56 38 -93 20z"/>
<path d="M670 931 c-83 -87 -124 -281 -74 -348 43 -57 98 -54 139 7 11 17 22
30 25 30 3 -1 14 -15 25 -33 33 -53 68 -49 126 13 45 48 49 50 49 28 0 -14 11
-37 25 -52 35 -37 81 -36 123 5 18 17 32 27 32 22 0 -5 -9 -49 -20 -99 -26
-116 -26 -204 -2 -234 11 -14 24 -20 31 -16 9 6 8 11 -5 20 -25 18 -14 143 27
327 30 135 33 189 10 175 -5 -3 -12 -23 -16 -43 -16 -92 -100 -177 -150 -155
-33 15 -40 52 -26 136 16 89 43 147 87 186 54 47 94 39 109 -23 4 -15 13 -27
21 -27 17 0 17 3 0 45 -8 19 -28 41 -46 50 -29 15 -34 15 -68 -3 -62 -32 -107
-113 -136 -245 -4 -15 -26 -48 -50 -73 -35 -36 -50 -45 -72 -42 -39 4 -47 42
-28 141 8 43 13 82 9 85 -9 9 -22 -10 -35 -53 -32 -104 -87 -185 -126 -185
-29 0 -42 17 -50 66 -18 116 75 314 148 314 28 0 58 -28 58 -53 0 -9 5 -19 10
-22 21 -13 9 35 -16 64 -39 46 -85 43 -134 -8z"/>
</g>
</svg>
